<svg width="100" height="100" viewBox="0 0 100 100" fill="none" xmlns="http://www.w3.org/2000/svg">
  <path d="M50 10C30 10 15 25 15 45C15 65 30 80 50 80C70 80 85 65 85 45C85 25 70 10 50 10Z" fill="white"/>
  <path d="M35 40C35 35 40 30 50 30C60 30 65 35 65 40C65 45 60 50 50 50C40 50 35 45 35 40Z" fill="black"/>
  <path d="M25 45C25 40 30 35 35 35C40 35 45 40 45 45C45 50 40 55 35 55C30 55 25 50 25 45Z" fill="black"/>
  <path d="M55 45C55 40 60 35 65 35C70 35 75 40 75 45C75 50 70 55 65 55C60 55 55 50 55 45Z" fill="black"/>
</svg>
