<?xml version="1.0" encoding="UTF-8" standalone="no"?>
<svg width="512" height="512" viewBox="0 0 512 512" xmlns="http://www.w3.org/2000/svg"
     xmlns:xlink="http://www.w3.org/1999/xlink">
  <!-- All strokes are white for a chunky Persona‑5 style on transparent background -->
  <g transform="rotate(-8 256 256)" stroke="#ffffff" stroke-width="16" stroke-linejoin="round" stroke-linecap="round" fill="none">
    <!-- Keyboard body outline -->
    <rect x="70" y="130" width="372" height="220" rx="24" ry="24"/>
    <!-- Keys grid -->
    <!-- Row 1 -->
    <rect x="95"  y="160" width="36" height="36" rx="6" ry="6"/>
    <rect x="140" y="160" width="36" height="36" rx="6" ry="6"/>
    <rect x="185" y="160" width="36" height="36" rx="6" ry="6"/>
    <rect x="230" y="160" width="36" height="36" rx="6" ry="6"/>
    <rect x="275" y="160" width="36" height="36" rx="6" ry="6"/>
    <rect x="320" y="160" width="36" height="36" rx="6" ry="6"/>
    <rect x="365" y="160" width="36" height="36" rx="6" ry="6"/>

    <!-- Row 2 -->
    <rect x="95"  y="205" width="36" height="36" rx="6" ry="6"/>
    <rect x="140" y="205" width="36" height="36" rx="6" ry="6"/>
    <rect x="185" y="205" width="36" height="36" rx="6" ry="6"/>
    <rect x="230" y="205" width="36" height="36" rx="6" ry="6"/>
    <rect x="275" y="205" width="36" height="36" rx="6" ry="6"/>
    <rect x="320" y="205" width="36" height="36" rx="6" ry="6"/>
    <rect x="365" y="205" width="36" height="36" rx="6" ry="6"/>

    <!-- Row 3 -->
    <rect x="95"  y="250" width="36" height="36" rx="6" ry="6"/>
    <rect x="140" y="250" width="36" height="36" rx="6" ry="6"/>
    <rect x="185" y="250" width="36" height="36" rx="6" ry="6"/>
    <rect x="230" y="250" width="36" height="36" rx="6" ry="6"/>
    <rect x="275" y="250" width="36" height="36" rx="6" ry="6"/>
    <rect x="320" y="250" width="36" height="36" rx="6" ry="6"/>
    <rect x="365" y="250" width="36" height="36" rx="6" ry="6"/>

    <!-- Row 4 -->
    <rect x="95"  y="295" width="36" height="36" rx="6" ry="6"/>
    <rect x="140" y="295" width="36" height="36" rx="6" ry="6"/>
    <rect x="185" y="295" width="36" height="36" rx="6" ry="6"/>
    <rect x="230" y="295" width="36" height="36" rx="6" ry="6"/>
    <rect x="275" y="295" width="36" height="36" rx="6" ry="6"/>
    <rect x="320" y="295" width="36" height="36" rx="6" ry="6"/>
    <rect x="365" y="295" width="36" height="36" rx="6" ry="6"/>

    <!-- Row 5: includes a longer space bar -->
    <rect x="95"  y="340" width="36"  height="36" rx="6" ry="6"/>
    <rect x="140" y="340" width="36"  height="36" rx="6" ry="6"/>
    <rect x="185" y="340" width="140" height="36" rx="6" ry="6"/> <!-- space bar -->
    <rect x="335" y="340" width="36"  height="36" rx="6" ry="6"/>
    <rect x="380" y="340" width="36"  height="36" rx="6" ry="6"/>
  </g>
</svg>
